<svg version="1.1" id="Layer_1" xmlns="http://www.w3.org/2000/svg" xmlns:xlink="http://www.w3.org/1999/xlink" x="0px" y="0px"
	 width="100%" viewBox="0 0 1600 1600" enable-background="new 0 0 1600 1600" xml:space="preserve">
<path fill="#FFFFFF" opacity="1.000000" stroke="none" 
	d="
M894.000000,1601.000000 
	C596.000061,1601.000000 298.500092,1601.000000 1.000120,1601.000000 
	C1.000080,1067.666870 1.000080,534.333618 1.000040,1.000335 
	C534.333069,1.000223 1067.666138,1.000223 1600.999512,1.000111 
	C1600.999634,534.333008 1600.999634,1067.666016 1600.999756,1600.999512 
	C1365.500000,1601.000000 1130.000000,1601.000000 894.000000,1601.000000 
M812.179993,711.175232 
	C812.164612,709.857666 812.137329,708.540039 812.135498,707.222473 
	C812.113281,690.978027 812.114319,690.978027 795.410645,689.174744 
	C794.870422,684.771545 797.097412,679.050537 789.667480,678.081299 
	C773.474976,675.968811 757.296753,675.864746 741.129272,678.176208 
	C737.400696,678.709229 735.560730,680.656006 735.634888,684.924255 
	C735.816162,695.355957 735.448608,705.797241 734.916077,715.481750 
	C732.471741,711.636169 728.567566,713.165039 725.043762,711.953308 
	C724.622742,707.513062 724.449524,703.031738 723.721802,698.642334 
	C722.667297,692.282104 720.901550,690.998535 714.476501,690.994629 
	C712.326111,690.993286 710.175781,691.008484 707.794983,690.266174 
	C707.535034,688.962463 707.252441,687.662720 707.018982,686.354309 
	C705.655457,678.714233 704.664551,677.865784 697.024170,677.865601 
	C663.746826,677.864929 630.469421,677.854187 597.192078,677.875000 
	C589.847900,677.879639 588.072998,679.656067 588.003906,686.953552 
	C587.911011,696.767090 587.870361,706.580994 587.275208,715.842590 
	C585.142334,711.280151 580.964661,713.327637 577.327148,711.966675 
	C577.145447,708.810364 577.128540,705.634155 576.751953,702.501282 
	C575.486145,691.970764 574.281738,690.958130 563.718384,690.995056 
	C562.553345,690.999146 561.388489,691.025330 560.043457,690.223694 
	C558.659119,678.446167 558.014282,677.864258 546.345642,677.864258 
	C514.730103,677.864319 483.114532,677.862732 451.498962,677.865356 
	C441.754211,677.866211 440.218964,679.367920 440.212585,689.067505 
	C440.196716,713.195190 440.234436,737.322876 440.199554,761.450500 
	C440.172882,779.916809 440.068085,798.383057 439.313995,816.413757 
	C435.808746,815.304260 432.303497,814.194824 428.631409,812.148804 
	C428.646667,810.006592 428.649719,807.864136 428.679199,805.722107 
	C428.842255,793.869812 426.680328,791.617188 414.552399,791.029785 
	C413.729523,790.989929 412.905029,790.983276 411.955872,790.105957 
	C411.884979,781.714233 410.918945,780.040466 403.498871,778.615967 
	C392.773224,776.556946 381.980469,776.653687 371.296082,779.140137 
	C367.651184,779.988464 365.824554,782.133972 365.812225,786.254333 
	C365.775391,798.576721 365.250671,810.897156 365.161133,823.220154 
	C365.129456,827.575928 363.296295,830.816956 359.249390,831.177551 
	C353.258911,831.711365 347.165710,831.092285 341.068451,830.076172 
	C341.012238,821.619263 340.275208,813.099365 341.049927,804.719238 
	C342.413177,789.973389 348.645905,777.809387 362.935211,771.445679 
	C378.778107,764.390015 394.208954,766.934753 408.877380,774.886780 
	C413.639496,777.468384 416.842102,776.865479 420.314911,773.337708 
	C430.192932,763.303345 435.059784,750.800415 436.924591,737.272644 
	C438.651123,724.747925 438.216827,723.076904 424.400055,716.778381 
	C425.441620,702.055664 426.581085,702.610596 411.898163,695.757996 
	C410.724030,695.210083 409.391663,695.001221 408.014801,693.888672 
	C406.832764,691.690186 406.120300,688.943848 404.352631,687.428528 
	C402.023132,685.431702 398.976685,684.103516 396.045074,683.003540 
	C375.193024,675.179565 353.613495,673.566467 331.649750,675.993286 
	C296.833801,679.840271 272.472839,698.195007 258.104279,729.873352 
	C248.028397,752.087585 247.233170,775.601257 249.459579,799.399170 
	C250.722351,812.896606 253.802811,825.976562 259.346008,838.396606 
	C266.097198,853.523438 276.563965,865.588440 290.149933,875.712036 
	C290.440826,875.824646 290.731750,875.937256 291.010315,875.985535 
	C291.010315,875.985535 290.945496,875.994507 290.721680,876.729431 
	C300.348663,897.216003 316.297852,910.797363 337.116760,918.939453 
	C355.746826,926.225464 375.186005,926.321228 394.696899,924.704834 
	C408.657135,923.548401 422.330139,920.798523 435.470337,915.692627 
	C438.861664,914.374878 440.234772,912.517029 440.192169,908.698120 
	C440.093903,899.884888 440.581482,891.065125 441.363007,882.821899 
	C443.026917,884.088684 444.533691,886.054077 446.388733,886.471313 
	C449.845306,887.248779 453.504517,887.125183 457.094299,888.190308 
	C457.076691,897.829773 459.109161,899.853455 469.830780,901.808533 
	C469.834747,904.471069 469.837372,907.133606 469.842834,909.796143 
	C469.863953,920.085327 472.424316,922.635925 482.864166,922.640076 
	C514.981201,922.652710 547.098267,922.649658 579.215332,922.640686 
	C585.696472,922.638855 587.966370,921.413025 588.751587,915.018677 
	C589.960999,905.170349 590.190247,895.201721 591.650818,885.619995 
	C596.052307,886.200134 600.453735,886.780334 604.873352,888.188171 
	C604.825989,897.983459 606.665222,899.864746 617.228699,901.804932 
	C617.222534,904.299683 617.208557,906.794434 617.211670,909.289185 
	C617.225098,919.969543 619.843323,922.638550 630.389221,922.641479 
	C662.488831,922.650513 694.588379,922.648193 726.687988,922.642212 
	C733.340942,922.640991 734.737122,921.684509 736.353149,915.129456 
	C738.798035,905.212341 739.797913,895.169800 738.966064,884.998047 
	C743.395874,885.702515 747.825745,886.406982 752.233154,887.994141 
	C752.201172,897.501404 752.201233,897.501099 761.628784,899.416504 
	C762.748047,899.643921 763.866150,899.876953 764.977234,901.030640 
	C764.976807,905.187744 765.314026,909.380066 764.885071,913.492493 
	C764.416016,917.989441 766.319031,919.888916 770.474243,920.469543 
	C786.648315,922.729675 802.811523,923.984985 819.095337,921.342346 
	C823.622803,920.607483 825.054810,918.587524 825.010132,914.032471 
	C824.830688,895.746826 825.033020,877.457458 825.614380,859.569702 
	C828.118469,864.391235 830.694824,869.176880 833.110168,874.042480 
	C836.898438,881.674194 842.472900,887.095825 851.219910,889.659119 
	C852.981689,892.167236 854.743530,894.675415 856.581055,897.522339 
	C856.721375,897.710327 856.885254,897.874939 856.997559,897.986206 
	C856.997559,897.986206 857.028381,897.911438 857.130432,898.626892 
	C859.909973,903.739868 862.449890,909.002625 865.528992,913.928345 
	C869.481873,920.251831 875.392273,923.429565 882.931702,924.042542 
	C890.917053,924.691833 897.985718,922.174133 904.997620,918.911072 
	C916.202332,913.696960 926.270325,906.908813 935.290039,898.160095 
	C930.278564,891.317200 925.564209,884.880127 921.236511,877.881714 
	C920.781738,876.042786 920.819824,873.852905 919.797852,872.417847 
	C905.358765,852.141174 890.775635,831.967041 876.700439,811.211975 
	C892.897705,781.964294 909.097595,752.718018 925.289612,723.467468 
	C927.794800,718.941956 927.377991,717.300415 922.376160,715.955994 
	C917.265198,714.582275 911.950378,713.966797 906.908752,712.318176 
	C908.903137,708.705688 910.903687,705.096619 912.890259,701.479858 
	C915.170654,697.328247 914.678589,695.434143 910.102417,694.238281 
	C905.015503,692.908813 899.737366,692.311035 894.807922,690.676086 
	C898.607178,683.486755 898.078125,680.935547 890.612061,680.347778 
	C873.935242,679.034851 857.174316,678.653992 840.439148,678.297302 
	C835.275574,678.187134 831.862061,681.130859 829.676575,686.303955 
	C825.868835,695.316895 821.183167,703.958923 816.127991,712.543030 
	C814.870056,712.398743 813.612061,712.254517 812.179993,711.175232 
M1340.756836,711.991760 
	C1340.378662,707.525330 1340.250732,703.020020 1339.564697,698.601379 
	C1338.480591,691.617798 1337.554199,690.990845 1330.598755,690.995911 
	C1328.273315,690.997620 1325.947876,691.029663 1323.309448,690.225159 
	C1322.856079,687.445923 1322.942871,684.406067 1321.769653,681.974060 
	C1320.909912,680.191589 1318.403809,678.049500 1316.618652,678.037903 
	C1282.216064,677.813232 1247.811523,677.839050 1213.407715,677.922546 
	C1206.938232,677.938232 1205.260498,679.842590 1205.178589,686.414734 
	C1205.068726,695.219666 1205.040527,704.025513 1204.303711,712.844727 
	C1203.630127,712.845154 1202.956665,712.845520 1202.119385,711.992249 
	C1201.823364,709.528748 1201.631714,707.047424 1201.214111,704.604675 
	C1198.909302,691.121704 1198.410645,690.733154 1184.291138,690.312378 
	C1184.164307,689.491882 1184.069580,688.664856 1183.905518,687.851868 
	C1182.104370,678.923218 1180.813477,677.865784 1171.740845,677.865601 
	C1141.319702,677.864990 1110.897583,677.996582 1080.478516,677.747375 
	C1074.830688,677.701111 1072.171265,680.102600 1070.990112,685.059937 
	C1068.092896,697.219360 1067.938354,709.419739 1070.932129,721.566956 
	C1072.559570,728.170471 1074.052612,729.101501 1080.964966,729.146057 
	C1082.787476,729.157776 1084.609131,729.309143 1086.630371,730.062988 
	C1088.579224,740.596863 1090.372925,742.594788 1098.001831,743.560181 
	C1098.001831,774.183533 1098.001831,804.806946 1098.001831,835.719238 
	C1091.431885,835.719238 1085.494995,835.719238 1079.206909,835.066528 
	C1077.246826,830.744629 1073.400146,830.686523 1069.553223,829.892822 
	C1068.964233,825.036743 1068.850952,820.058716 1067.646362,815.360535 
	C1066.541382,811.051208 1063.339966,808.467712 1058.388550,808.965881 
	C1056.594971,809.146362 1054.769653,809.011292 1052.619019,808.344910 
	C1050.002319,796.666870 1048.995117,795.864258 1036.954956,795.864258 
	C1001.625244,795.864258 966.293945,796.053711 930.966980,795.741943 
	C921.140747,795.655212 919.080322,798.361755 917.360291,807.171997 
	C916.000244,814.138489 916.371277,821.259949 920.515808,827.403809 
	C923.804260,832.278564 929.333618,830.145325 934.011047,831.661377 
	C936.113159,841.788330 937.733887,843.432007 946.175354,844.952942 
	C946.722107,849.367004 946.958191,853.848328 947.895508,858.177856 
	C949.030640,863.421265 952.606384,865.706482 958.081055,865.689636 
	C995.165283,865.575500 1032.249878,865.590149 1069.636475,866.463196 
	C1070.273560,870.717896 1070.620972,875.041382 1071.611938,879.211914 
	C1073.327637,886.432007 1074.436523,887.105286 1081.770020,887.145508 
	C1083.589233,887.155457 1085.407715,887.299194 1087.392700,888.074524 
	C1089.666382,899.305420 1090.441406,900.158997 1098.998413,901.752380 
	C1099.727539,906.348267 1100.223389,910.996948 1101.248779,915.525696 
	C1102.366943,920.464172 1105.285522,922.804077 1110.883301,922.759949 
	C1141.535156,922.518372 1172.189819,922.645691 1202.843506,922.644165 
	C1210.166138,922.643799 1212.612549,921.310669 1213.806519,914.039124 
	C1215.144775,905.888489 1215.260986,897.537170 1216.676636,889.277161 
	C1218.466187,889.548645 1220.255859,889.820129 1222.034180,890.950500 
	C1222.025391,899.539795 1222.604126,900.253418 1230.959839,902.076172 
	C1232.245361,902.356567 1233.513428,902.717224 1234.793457,903.971069 
	C1234.796265,907.131836 1234.800537,910.292664 1234.801880,913.453430 
	C1234.805176,921.195374 1235.703491,922.508179 1243.531738,923.849243 
	C1257.755127,926.285706 1272.010986,925.743103 1286.167969,923.289856 
	C1292.703369,922.157349 1293.483643,920.875671 1293.491821,914.209412 
	C1293.516846,893.747437 1293.493896,873.285461 1293.513306,852.823486 
	C1293.515137,850.906067 1293.685303,848.988770 1293.797852,846.644409 
	C1305.312378,846.644409 1316.263550,846.564697 1327.212036,846.692261 
	C1330.556641,846.731201 1332.684326,845.616394 1333.326050,842.249756 
	C1335.748169,829.542236 1335.838989,816.837219 1333.188965,804.147827 
	C1332.545410,801.066284 1330.706177,799.635742 1327.473877,799.967163 
	C1325.827271,800.135986 1324.149658,800.002563 1322.279785,799.092041 
	C1321.848755,793.844666 1321.561768,788.580139 1320.937866,783.355774 
	C1320.491699,779.619141 1318.566650,777.429749 1314.281128,777.930115 
	C1311.350708,778.272339 1308.350586,778.018982 1305.159912,777.192566 
	C1304.353271,773.471924 1303.546631,769.751221 1303.714355,765.899963 
	C1317.332153,765.888245 1330.955078,765.663635 1344.565186,765.979797 
	C1349.353149,766.091125 1351.660400,763.973816 1351.808960,759.846130 
	C1352.255371,747.437988 1352.970459,734.976929 1352.272827,722.610291 
	C1351.721680,712.839722 1350.863281,712.888123 1340.756836,711.991760 
z"/>
<path fill="#FFE139" opacity="1.000000" stroke="none" 
	d="
M752.255554,887.111389 
	C747.825745,886.406982 743.395874,885.702515 738.260498,884.719910 
	C736.842163,880.872742 736.129333,877.303650 735.531494,873.305542 
	C735.678223,837.843994 735.715454,802.811584 735.728027,767.779175 
	C735.728760,765.630615 735.533752,763.481873 735.498535,760.848938 
	C735.478882,745.654602 735.390442,730.944641 735.302002,716.234619 
	C735.448608,705.797241 735.816162,695.355957 735.634888,684.924255 
	C735.560730,680.656006 737.400696,678.709229 741.129272,678.176208 
	C757.296753,675.864746 773.474976,675.968811 789.667480,678.081299 
	C797.097412,679.050537 794.870422,684.771545 795.420532,690.062134 
	C795.430359,712.788025 795.430359,734.626526 795.430359,756.465027 
	C795.725525,756.540894 796.020752,756.616699 796.315918,756.692566 
	C801.624634,745.298889 806.933350,733.905212 812.475708,722.333008 
	C814.094788,719.021790 815.480225,715.889099 816.865601,712.756470 
	C821.183167,703.958923 825.868835,695.316895 829.676575,686.303955 
	C831.862061,681.130859 835.275574,678.187134 840.439148,678.297302 
	C857.174316,678.653992 873.935242,679.034851 890.612061,680.347778 
	C898.078125,680.935547 898.607178,683.486755 894.500732,691.253418 
	C878.436096,720.162476 862.724731,748.520203 846.847717,776.784851 
	C845.309875,779.522583 846.514404,781.029907 847.901855,782.942261 
	C862.367676,802.881897 876.812744,822.836609 891.252563,842.795166 
	C896.101196,849.496887 900.918274,856.221375 906.025330,863.318420 
	C889.654297,876.953552 873.457092,889.559875 851.013977,889.005188 
	C842.472900,887.095825 836.898438,881.674194 833.110168,874.042480 
	C830.694824,869.176880 828.118469,864.391235 825.267395,859.004883 
	C820.702332,850.467957 816.484253,842.495728 812.182373,834.239929 
	C808.617188,827.158569 805.308411,820.262329 801.526733,813.635986 
	C800.638000,812.078735 798.151917,811.433044 795.367981,809.739990 
	C795.367981,832.922424 795.368530,854.218567 795.367798,875.514648 
	C795.367432,885.929504 795.294922,886.006104 784.654907,886.975220 
	C784.323425,887.005371 783.990479,887.037781 783.658142,887.038635 
	C773.190613,887.065247 762.723083,887.088013 752.255554,887.111389 
z"/>
<path fill="#FFE139" opacity="1.000000" stroke="none" 
	d="
M341.116241,830.963989 
	C347.165710,831.092285 353.258911,831.711365 359.249390,831.177551 
	C363.296295,830.816956 365.129456,827.575928 365.161133,823.220154 
	C365.250671,810.897156 365.775391,798.576721 365.812225,786.254333 
	C365.824554,782.133972 367.651184,779.988464 371.296082,779.140137 
	C381.980469,776.653687 392.773224,776.556946 403.498871,778.615967 
	C410.918945,780.040466 411.884979,781.714233 411.925293,790.993286 
	C411.548340,818.841064 411.069580,845.801025 410.985443,872.762268 
	C410.971344,877.274841 409.362213,879.656677 405.394745,880.648254 
	C394.463623,883.380493 383.617981,886.857910 372.510834,888.391846 
	C354.033112,890.943604 335.354980,891.942932 317.039856,886.789917 
	C310.249451,884.879333 303.666107,882.232849 296.988098,879.965698 
	C296.987885,880.009460 297.075317,880.014893 297.089813,879.662659 
	C296.712219,879.052612 296.320160,878.794800 295.661621,878.382568 
	C293.911926,877.483643 292.428711,876.739075 290.945496,875.994507 
	C290.945496,875.994507 291.010315,875.985535 290.918640,875.793091 
	C290.611053,875.318604 290.325531,875.182251 289.970459,875.191589 
	C276.563965,865.588440 266.097198,853.523438 259.346008,838.396606 
	C253.802811,825.976562 250.722351,812.896606 249.459579,799.399170 
	C247.233170,775.601257 248.028397,752.087585 258.104279,729.873352 
	C272.472839,698.195007 296.833801,679.840271 331.649750,675.993286 
	C353.613495,673.566467 375.193024,675.179565 396.045074,683.003540 
	C398.976685,684.103516 402.023132,685.431702 404.352631,687.428528 
	C406.120300,688.943848 406.832764,691.690186 408.013062,694.736694 
	C407.996185,709.025940 403.138733,720.950989 396.166199,732.086548 
	C394.264343,735.123901 391.619843,737.986694 388.670837,739.970154 
	C386.868683,741.182373 383.119476,741.661438 381.478027,740.586487 
	C373.218018,735.177307 364.049072,733.133240 354.534088,732.474854 
	C337.858551,731.321106 320.587921,739.667297 314.781036,756.473633 
	C308.926239,773.418762 308.991669,790.558228 315.121765,807.362793 
	C318.848877,817.579895 326.003235,825.092163 336.593811,829.384888 
	C338.250916,830.064819 339.683563,830.514404 341.116241,830.963989 
z"/>
<path fill="#FFE139" opacity="1.000000" stroke="none" 
	d="
M439.998047,816.849304 
	C440.068085,798.383057 440.172882,779.916809 440.199554,761.450500 
	C440.234436,737.322876 440.196716,713.195190 440.212585,689.067505 
	C440.218964,679.367920 441.754211,677.866211 451.498962,677.865356 
	C483.114532,677.862732 514.730103,677.864319 546.345642,677.864258 
	C558.014282,677.864258 558.659119,678.446167 560.093994,691.070312 
	C559.795105,702.501953 559.624878,713.097168 559.018005,723.667297 
	C558.730042,728.683960 555.955322,731.077271 550.416626,730.943359 
	C536.639038,730.610352 522.847900,730.833862 509.062256,730.833862 
	C505.808807,730.833862 502.555328,730.833862 499.298859,730.833862 
	C499.298859,741.217590 499.298859,750.931335 499.298859,760.836609 
	C505.012939,760.836609 510.457245,760.836609 516.372314,760.902588 
	C522.446655,760.979126 528.064697,761.239868 533.648987,760.917725 
	C537.808350,760.677795 540.704285,761.782898 542.056641,766.306091 
	C542.437012,769.206604 542.831116,771.691467 543.179626,774.630859 
	C542.733582,782.372559 542.650024,789.694946 541.844421,796.936890 
	C541.024902,804.303589 539.674255,805.155396 532.284546,805.156738 
	C521.359009,805.158752 510.433472,805.157288 499.298126,805.157288 
	C499.298126,815.368958 499.298126,825.074951 499.298126,834.945801 
	C505.013855,834.945801 510.459656,834.945801 516.375244,835.023499 
	C528.093384,835.114746 539.343750,835.259399 550.588806,835.076233 
	C554.971497,835.004822 557.957825,836.367065 559.430786,841.097778 
	C560.107361,843.827576 560.634766,846.141907 561.127075,848.866211 
	C562.788940,860.124817 561.636536,870.788391 559.061523,881.371216 
	C558.058655,885.493103 555.819519,887.573364 551.290100,887.224487 
	C547.159729,886.906372 542.985596,887.148071 538.830750,887.158752 
	C511.580292,887.229004 484.329834,887.303467 457.079376,887.376587 
	C453.504517,887.125183 449.845306,887.248779 446.388733,886.471313 
	C444.533691,886.054077 443.026917,884.088684 441.043457,882.203125 
	C440.535034,879.278015 440.192932,876.972290 440.181488,874.665039 
	C440.085907,855.393250 440.051147,836.121277 439.998047,816.849304 
z"/>
<path fill="#FFE139" opacity="1.000000" stroke="none" 
	d="
M604.855225,887.360596 
	C600.453735,886.780334 596.052307,886.200134 591.026489,885.245239 
	C589.540100,880.963501 588.677979,877.056396 587.880249,872.671692 
	C587.902222,835.546509 587.859863,798.898987 587.871216,761.769653 
	C587.885681,746.323425 587.846436,731.359131 587.807251,716.394775 
	C587.870361,706.580994 587.911011,696.767090 588.003906,686.953552 
	C588.072998,679.656067 589.847900,677.879639 597.192078,677.875000 
	C630.469421,677.854187 663.746826,677.864929 697.024170,677.865601 
	C704.664551,677.865784 705.655457,678.714233 707.018982,686.354309 
	C707.252441,687.662720 707.535034,688.962463 707.852173,691.105957 
	C707.570557,702.381104 707.610474,712.847839 706.752075,723.240356 
	C706.229736,729.563782 704.078125,730.826721 697.974182,730.830200 
	C682.693481,730.838867 667.412720,730.833008 652.132019,730.833008 
	C650.392700,730.833008 648.653381,730.833069 647.119324,730.833069 
	C647.119324,741.348999 647.119324,751.055664 647.119324,760.843079 
	C652.775879,760.843079 658.068542,760.843079 663.795776,760.905640 
	C670.060791,760.979187 675.909973,761.280090 681.715210,760.903809 
	C685.911682,760.631775 688.357666,762.172485 689.729187,766.394165 
	C690.199402,769.265930 690.616455,771.707031 690.969116,774.598389 
	C690.601501,781.187256 690.507690,787.345093 689.949341,793.460510 
	C688.945435,804.456482 688.061768,805.156311 677.367615,805.156433 
	C674.205261,805.156494 671.042847,805.156433 667.880493,805.156433 
	C660.945923,805.156433 654.011414,805.156494 647.147095,805.156494 
	C647.147095,815.531250 647.147095,825.243347 647.147095,834.939758 
	C652.847412,834.939758 658.154236,834.939758 663.966431,835.016907 
	C675.534607,835.110413 686.600891,835.296692 697.658264,835.061035 
	C702.199585,834.964233 705.321106,836.390381 707.098450,840.988831 
	C707.717102,843.739685 708.337524,846.079224 708.902344,848.858765 
	C708.434814,858.742981 708.635803,868.265747 707.437561,877.609131 
	C706.250977,886.861389 705.168091,887.140564 695.779785,887.159302 
	C665.471619,887.219910 635.163391,887.292603 604.855225,887.360596 
z"/>
<path fill="#FFE139" opacity="1.000000" stroke="none" 
	d="
M1087.226562,887.381470 
	C1085.407715,887.299194 1083.589233,887.155457 1081.770020,887.145508 
	C1074.436523,887.105286 1073.327637,886.432007 1071.611938,879.211914 
	C1070.620972,875.041382 1070.273560,870.717896 1069.599121,865.597412 
	C1070.386597,857.199280 1070.973389,849.629944 1072.136230,842.150146 
	C1072.728027,838.343750 1074.957520,835.403564 1079.557983,835.719238 
	C1085.494995,835.719238 1091.431885,835.719238 1098.001831,835.719238 
	C1098.001831,804.806946 1098.001831,774.183533 1098.009033,742.642822 
	C1098.016235,737.686951 1098.016235,733.648499 1098.016235,729.396423 
	C1093.852051,729.396423 1090.141602,729.396423 1086.431152,729.396362 
	C1084.609131,729.309143 1082.787476,729.157776 1080.964966,729.146057 
	C1074.052612,729.101501 1072.559570,728.170471 1070.932129,721.566956 
	C1067.938354,709.419739 1068.092896,697.219360 1070.990112,685.059937 
	C1072.171265,680.102600 1074.830688,677.701111 1080.478516,677.747375 
	C1110.897583,677.996582 1141.319702,677.864990 1171.740845,677.865601 
	C1180.813477,677.865784 1182.104370,678.923218 1183.905518,687.851868 
	C1184.069580,688.664856 1184.164307,689.491882 1184.439209,691.103394 
	C1186.014771,702.399414 1185.722656,712.820740 1182.864746,723.077271 
	C1181.748047,727.085022 1179.695190,729.665100 1174.755859,729.260803 
	C1169.176147,728.804199 1163.530151,729.155579 1157.752319,729.155579 
	C1157.752319,764.963501 1157.752319,800.283020 1157.752319,835.619690 
	C1163.482422,835.619690 1168.794556,835.619690 1174.512695,835.708496 
	C1180.486572,834.979126 1182.947510,838.149292 1184.189087,842.959534 
	C1184.712646,844.987549 1185.367554,846.981567 1185.906494,849.445923 
	C1185.761841,857.996399 1186.493164,866.204773 1185.397583,874.161621 
	C1183.653564,886.829224 1182.657471,887.133606 1169.906738,887.161194 
	C1142.346680,887.220886 1114.786621,887.306458 1087.226562,887.381470 
z"/>
<path fill="#FFE139" opacity="1.000000" stroke="none" 
	d="
M1302.739990,766.030579 
	C1303.546631,769.751221 1304.353271,773.471924 1305.205566,778.077515 
	C1305.125732,786.941589 1305.344727,794.945496 1304.775757,802.892944 
	C1304.226929,810.556824 1303.166992,811.156616 1295.588379,811.157104 
	C1285.164062,811.157776 1274.739746,811.157288 1263.995972,811.157288 
	C1263.995972,813.587463 1263.995850,815.394165 1263.995850,817.200867 
	C1263.995850,838.172607 1263.863525,859.145874 1264.095459,880.115051 
	C1264.148682,884.928345 1262.195679,887.227966 1257.836060,888.071228 
	C1255.880249,888.449524 1253.910767,888.912415 1251.932861,888.997131 
	C1241.973022,889.423523 1232.008423,889.737854 1222.045410,890.091553 
	C1220.255859,889.820129 1218.466187,889.548645 1215.920166,889.176392 
	C1205.187866,886.510193 1205.197632,886.510193 1205.172852,876.384216 
	C1205.168457,874.587891 1205.045410,872.791748 1205.050537,870.531860 
	C1205.075806,834.768372 1205.027588,799.468567 1205.059692,763.695007 
	C1205.085693,746.424561 1205.031494,729.627747 1204.977295,712.830994 
	C1205.040527,704.025513 1205.068726,695.219666 1205.178589,686.414734 
	C1205.260498,679.842590 1206.938232,677.938232 1213.407715,677.922546 
	C1247.811523,677.839050 1282.216064,677.813232 1316.618652,678.037903 
	C1318.403809,678.049500 1320.909912,680.191589 1321.769653,681.974060 
	C1322.942871,684.406067 1322.856079,687.445923 1323.397461,691.043945 
	C1323.036499,703.138000 1322.692261,714.418945 1322.079712,725.685364 
	C1321.875610,729.438965 1319.542358,730.961182 1315.623901,730.900696 
	C1303.634644,730.715576 1291.640747,730.833801 1279.648560,730.833862 
	C1274.546753,730.833923 1269.444946,730.833862 1264.247681,730.833862 
	C1264.247681,742.480347 1264.247681,753.550781 1264.247681,764.836060 
	C1269.950317,764.836060 1275.405518,764.836060 1281.334595,764.902100 
	C1283.614380,764.978760 1285.425049,764.910400 1287.225586,765.015198 
	C1292.399170,765.316162 1297.568848,765.687134 1302.739990,766.030579 
z"/>
<path fill="#FFE139" opacity="1.000000" stroke="none" 
	d="
M933.936584,830.852234 
	C929.333618,830.145325 923.804260,832.278564 920.515808,827.403809 
	C916.371277,821.259949 916.000244,814.138489 917.360291,807.171997 
	C919.080322,798.361755 921.140747,795.655212 930.966980,795.741943 
	C966.293945,796.053711 1001.625244,795.864258 1036.954956,795.864258 
	C1048.995117,795.864258 1050.002319,796.666870 1052.722412,809.129517 
	C1052.677490,812.720276 1052.820435,815.578735 1052.328613,818.323364 
	C1050.435303,828.887634 1048.334595,830.537109 1037.517456,830.537170 
	C1007.959839,830.537231 978.402283,830.522705 948.844666,830.551331 
	C943.875244,830.556091 938.905945,830.747192 933.936584,830.852234 
z"/>
<path fill="#288AFD" opacity="1.000000" stroke="none" 
	d="
M851.116943,889.332153 
	C873.457092,889.559875 889.654297,876.953552 906.025330,863.318420 
	C900.918274,856.221375 896.101196,849.496887 891.252563,842.795166 
	C876.812744,822.836609 862.367676,802.881897 847.901855,782.942261 
	C846.514404,781.029907 845.309875,779.522583 846.847717,776.784851 
	C862.724731,748.520203 878.436096,720.162476 894.368042,691.612671 
	C899.737366,692.311035 905.015503,692.908813 910.102417,694.238281 
	C914.678589,695.434143 915.170654,697.328247 912.890259,701.479858 
	C910.903687,705.096619 908.903137,708.705688 906.578003,712.887878 
	C892.156982,738.836304 878.024658,764.191956 864.085510,789.653442 
	C863.283875,791.117676 863.326904,793.925903 864.224243,795.284973 
	C867.965393,800.950928 872.183960,806.301758 876.227417,811.768127 
	C890.775635,831.967041 905.358765,852.141174 919.797852,872.417847 
	C920.819824,873.852905 920.781738,876.042786 920.720703,878.315186 
	C911.435913,884.644958 903.018555,891.175964 893.809631,896.278015 
	C882.098083,902.766785 869.632507,905.280945 857.028381,897.911438 
	C857.028381,897.911438 856.997559,897.986206 857.087891,897.800781 
	C857.019775,897.368774 856.795471,897.224792 856.505310,897.183533 
	C854.743530,894.675415 852.981689,892.167236 851.116943,889.332153 
z"/>
<path fill="#FE2DB9" opacity="1.000000" stroke="none" 
	d="
M439.656006,816.631531 
	C440.051147,836.121277 440.085907,855.393250 440.181488,874.665039 
	C440.192932,876.972290 440.535034,879.278015 440.777649,881.916260 
	C440.581482,891.065125 440.093903,899.884888 440.192169,908.698120 
	C440.234772,912.517029 438.861664,914.374878 435.470337,915.692627 
	C422.330139,920.798523 408.657135,923.548401 394.696899,924.704834 
	C375.186005,926.321228 355.746826,926.225464 337.116760,918.939453 
	C316.297852,910.797363 300.348663,897.216003 290.833588,876.361938 
	C292.428711,876.739075 293.911926,877.483643 295.743164,878.711853 
	C296.419220,879.468628 296.747253,879.741760 297.075317,880.014893 
	C297.075317,880.014893 296.987885,880.009460 297.089966,880.292908 
	C310.957611,893.015198 327.137299,900.454041 345.493652,902.351624 
	C371.598358,905.050049 397.313660,902.989990 422.212555,893.934326 
	C426.124481,892.511536 427.796387,890.406982 427.786591,885.937805 
	C427.737335,863.457397 428.067719,840.976013 428.302582,818.495361 
	C428.321442,816.690491 428.626282,814.888672 428.798279,813.085388 
	C432.303497,814.194824 435.808746,815.304260 439.656006,816.631531 
z"/>
<path fill="#FE2DB9" opacity="1.000000" stroke="none" 
	d="
M1322.486084,800.005676 
	C1324.149658,800.002563 1325.827271,800.135986 1327.473877,799.967163 
	C1330.706177,799.635742 1332.545410,801.066284 1333.188965,804.147827 
	C1335.838989,816.837219 1335.748169,829.542236 1333.326050,842.249756 
	C1332.684326,845.616394 1330.556641,846.731201 1327.212036,846.692261 
	C1316.263550,846.564697 1305.312378,846.644409 1293.797852,846.644409 
	C1293.685303,848.988770 1293.515137,850.906067 1293.513306,852.823486 
	C1293.493896,873.285461 1293.516846,893.747437 1293.491821,914.209412 
	C1293.483643,920.875671 1292.703369,922.157349 1286.167969,923.289856 
	C1272.010986,925.743103 1257.755127,926.285706 1243.531738,923.849243 
	C1235.703491,922.508179 1234.805176,921.195374 1234.801880,913.453430 
	C1234.800537,910.292664 1234.796265,907.131836 1235.268799,903.465271 
	C1247.847168,902.615417 1259.966919,902.549377 1272.046875,901.823303 
	C1279.321533,901.385986 1280.872681,899.164734 1280.873901,892.056274 
	C1280.877319,871.435852 1280.875244,850.815491 1280.875366,830.195068 
	C1280.875366,828.434570 1280.875244,826.674133 1280.875244,824.612000 
	C1292.422852,824.612000 1303.223877,824.444641 1314.015137,824.693176 
	C1318.425537,824.794678 1320.639038,822.970093 1321.032715,818.854248 
	C1321.632568,812.582397 1322.012573,806.289612 1322.486084,800.005676 
z"/>
<path fill="#FE2DB9" opacity="1.000000" stroke="none" 
	d="
M341.092346,830.520081 
	C339.683563,830.514404 338.250916,830.064819 336.424377,829.044373 
	C325.757080,811.373352 325.849335,793.010559 330.057281,774.417114 
	C333.427521,759.525208 343.496796,750.535889 358.030121,747.024475 
	C371.294037,743.819641 384.261627,745.894775 396.043030,752.711243 
	C400.949493,755.549988 404.532776,755.077820 407.835754,751.182617 
	C411.036774,747.407593 414.522400,743.585571 416.551941,739.172119 
	C419.723907,732.274292 421.773621,724.860352 424.298828,717.665100 
	C438.216827,723.076904 438.651123,724.747925 436.924591,737.272644 
	C435.059784,750.800415 430.192932,763.303345 420.314911,773.337708 
	C416.842102,776.865479 413.639496,777.468384 408.877380,774.886780 
	C394.208954,766.934753 378.778107,764.390015 362.935211,771.445679 
	C348.645905,777.809387 342.413177,789.973389 341.049927,804.719238 
	C340.275208,813.099365 341.012238,821.619263 341.092346,830.520081 
z"/>
<path fill="#288AFD" opacity="1.000000" stroke="none" 
	d="
M424.349426,717.221741 
	C421.773621,724.860352 419.723907,732.274292 416.551941,739.172119 
	C414.522400,743.585571 411.036774,747.407593 407.835754,751.182617 
	C404.532776,755.077820 400.949493,755.549988 396.043030,752.711243 
	C384.261627,745.894775 371.294037,743.819641 358.030121,747.024475 
	C343.496796,750.535889 333.427521,759.525208 330.057281,774.417114 
	C325.849335,793.010559 325.757080,811.373352 336.199982,828.814026 
	C326.003235,825.092163 318.848877,817.579895 315.121765,807.362793 
	C308.991669,790.558228 308.926239,773.418762 314.781036,756.473633 
	C320.587921,739.667297 337.858551,731.321106 354.534088,732.474854 
	C364.049072,733.133240 373.218018,735.177307 381.478027,740.586487 
	C383.119476,741.661438 386.868683,741.182373 388.670837,739.970154 
	C391.619843,737.986694 394.264343,735.123901 396.166199,732.086548 
	C403.138733,720.950989 407.996185,709.025940 408.072083,695.109741 
	C409.391663,695.001221 410.724030,695.210083 411.898163,695.757996 
	C426.581085,702.610596 425.441620,702.055664 424.349426,717.221741 
z"/>
<path fill="#288AFD" opacity="1.000000" stroke="none" 
	d="
M1322.382812,799.548828 
	C1322.012573,806.289612 1321.632568,812.582397 1321.032715,818.854248 
	C1320.639038,822.970093 1318.425537,824.794678 1314.015137,824.693176 
	C1303.223877,824.444641 1292.422852,824.612000 1280.875244,824.612000 
	C1280.875244,826.674133 1280.875366,828.434570 1280.875366,830.195068 
	C1280.875244,850.815491 1280.877319,871.435852 1280.873901,892.056274 
	C1280.872681,899.164734 1279.321533,901.385986 1272.046875,901.823303 
	C1259.966919,902.549377 1247.847168,902.615417 1235.266846,903.000122 
	C1233.513428,902.717224 1232.245361,902.356567 1230.959839,902.076172 
	C1222.604126,900.253418 1222.025391,899.539795 1222.039795,890.520996 
	C1232.008423,889.737854 1241.973022,889.423523 1251.932861,888.997131 
	C1253.910767,888.912415 1255.880249,888.449524 1257.836060,888.071228 
	C1262.195679,887.227966 1264.148682,884.928345 1264.095459,880.115051 
	C1263.863525,859.145874 1263.995850,838.172607 1263.995850,817.200867 
	C1263.995850,815.394165 1263.995972,813.587463 1263.995972,811.157288 
	C1274.739746,811.157288 1285.164062,811.157776 1295.588379,811.157104 
	C1303.166992,811.156616 1304.226929,810.556824 1304.775757,802.892944 
	C1305.344727,794.945496 1305.125732,786.941589 1305.316528,778.497070 
	C1308.350586,778.018982 1311.350708,778.272339 1314.281128,777.930115 
	C1318.566650,777.429749 1320.491699,779.619141 1320.937866,783.355774 
	C1321.561768,788.580139 1321.848755,793.844666 1322.382812,799.548828 
z"/>
<path fill="#288AFD" opacity="1.000000" stroke="none" 
	d="
M428.714844,812.617065 
	C428.626282,814.888672 428.321442,816.690491 428.302582,818.495361 
	C428.067719,840.976013 427.737335,863.457397 427.786591,885.937805 
	C427.796387,890.406982 426.124481,892.511536 422.212555,893.934326 
	C397.313660,902.989990 371.598358,905.050049 345.493652,902.351624 
	C327.137299,900.454041 310.957611,893.015198 297.090210,880.249146 
	C303.666107,882.232849 310.249451,884.879333 317.039856,886.789917 
	C335.354980,891.942932 354.033112,890.943604 372.510834,888.391846 
	C383.617981,886.857910 394.463623,883.380493 405.394745,880.648254 
	C409.362213,879.656677 410.971344,877.274841 410.985443,872.762268 
	C411.069580,845.801025 411.548340,818.841064 411.987976,791.420959 
	C412.905029,790.983276 413.729523,790.989929 414.552399,791.029785 
	C426.680328,791.617188 428.842255,793.869812 428.679199,805.722107 
	C428.649719,807.864136 428.646667,810.006592 428.714844,812.617065 
z"/>
<path fill="#FE2DB9" opacity="1.000000" stroke="none" 
	d="
M735.416504,873.734619 
	C736.129333,877.303650 736.842163,880.872742 737.860962,884.715271 
	C739.797913,895.169800 738.798035,905.212341 736.353149,915.129456 
	C734.737122,921.684509 733.340942,922.640991 726.687988,922.642212 
	C694.588379,922.648193 662.488831,922.650513 630.389221,922.641479 
	C619.843323,922.638550 617.225098,919.969543 617.211670,909.289185 
	C617.208557,906.794434 617.222534,904.299683 617.686523,901.248535 
	C650.259888,900.665527 682.375366,900.642151 714.490906,900.609741 
	C720.872192,900.603271 722.685547,899.609497 723.751282,893.383972 
	C725.064758,885.711792 725.545837,877.897034 726.834167,870.144958 
	C730.599121,869.968811 733.744202,870.182495 735.416504,873.734619 
z"/>
<path fill="#FE2DB9" opacity="1.000000" stroke="none" 
	d="
M587.815857,873.149353 
	C588.677979,877.056396 589.540100,880.963501 590.618774,885.077332 
	C590.190247,895.201721 589.960999,905.170349 588.751587,915.018677 
	C587.966370,921.413025 585.696472,922.638855 579.215332,922.640686 
	C547.098267,922.649658 514.981201,922.652710 482.864166,922.640076 
	C472.424316,922.635925 469.863953,920.085327 469.842834,909.796143 
	C469.837372,907.133606 469.834747,904.471069 470.297058,901.236084 
	C502.652771,900.646667 534.542175,900.631348 566.431580,900.611450 
	C573.524109,900.607056 574.892273,899.914368 576.186584,892.838745 
	C577.553955,885.364136 578.048645,877.729858 579.328613,870.155273 
	C582.427063,871.146545 585.121460,872.147949 587.815857,873.149353 
z"/>
<path fill="#FE2DB9" opacity="1.000000" stroke="none" 
	d="
M1204.977051,870.995544 
	C1205.045410,872.791748 1205.168457,874.587891 1205.172852,876.384216 
	C1205.197632,886.510193 1205.187866,886.510193 1215.536255,889.174377 
	C1215.260986,897.537170 1215.144775,905.888489 1213.806519,914.039124 
	C1212.612549,921.310669 1210.166138,922.643799 1202.843506,922.644165 
	C1172.189819,922.645691 1141.535156,922.518372 1110.883301,922.759949 
	C1105.285522,922.804077 1102.366943,920.464172 1101.248779,915.525696 
	C1100.223389,910.996948 1099.727539,906.348267 1099.364014,901.135986 
	C1130.166626,900.482178 1160.603516,900.446167 1191.040405,900.406250 
	C1197.907959,900.397278 1199.648926,899.518066 1200.983887,892.718262 
	C1202.383057,885.591064 1202.751587,878.261475 1203.803955,871.012695 
	C1204.350586,870.998230 1204.663818,870.995056 1204.977051,870.995544 
z"/>
<path fill="#288AFD" opacity="1.000000" stroke="none" 
	d="
M1174.106567,835.619690 
	C1168.794556,835.619690 1163.482422,835.619690 1157.752319,835.619690 
	C1157.752319,800.283020 1157.752319,764.963501 1157.752319,729.155579 
	C1163.530151,729.155579 1169.176147,728.804199 1174.755859,729.260803 
	C1179.695190,729.665100 1181.748047,727.085022 1182.864746,723.077271 
	C1185.722656,712.820740 1186.014771,702.399414 1184.622314,691.482178 
	C1198.410645,690.733154 1198.909302,691.121704 1201.214111,704.604675 
	C1201.631714,707.047424 1201.823364,709.528748 1202.135620,712.892822 
	C1201.261963,721.353638 1200.606812,728.952026 1199.391357,736.459595 
	C1198.697998,740.741943 1195.844360,742.782898 1191.141724,742.488953 
	C1185.574341,742.141052 1179.968750,742.407227 1174.106567,742.407227 
	C1174.106567,774.049683 1174.106567,804.834656 1174.106567,835.619690 
z"/>
<path fill="#FE2DB9" opacity="1.000000" stroke="none" 
	d="
M1079.382446,835.392883 
	C1074.957520,835.403564 1072.728027,838.343750 1072.136230,842.150146 
	C1070.973389,849.629944 1070.386597,857.199280 1069.447998,865.147400 
	C1032.249878,865.590149 995.165283,865.575500 958.081055,865.689636 
	C952.606384,865.706482 949.030640,863.421265 947.895508,858.177856 
	C946.958191,853.848328 946.722107,849.367004 946.652222,844.435303 
	C983.835510,843.896912 1020.542053,843.880005 1057.248535,843.851990 
	C1064.132690,843.846680 1065.970459,842.537109 1068.125977,836.039001 
	C1068.696167,834.320068 1069.042603,832.526978 1069.491699,830.767944 
	C1073.400146,830.686523 1077.246826,830.744629 1079.382446,835.392883 
z"/>
<path fill="#288AFD" opacity="1.000000" stroke="none" 
	d="
M726.386597,870.143921 
	C725.545837,877.897034 725.064758,885.711792 723.751282,893.383972 
	C722.685547,899.609497 720.872192,900.603271 714.490906,900.609741 
	C682.375366,900.642151 650.259888,900.665527 617.701050,900.774109 
	C606.665222,899.864746 604.825989,897.983459 604.864258,887.774414 
	C635.163391,887.292603 665.471619,887.219910 695.779785,887.159302 
	C705.168091,887.140564 706.250977,886.861389 707.437561,877.609131 
	C708.635803,868.265747 708.434814,858.742981 709.359802,848.846924 
	C711.039185,848.391174 712.205688,848.383423 713.372131,848.383850 
	C721.305054,848.387024 722.832336,849.480408 724.500305,857.324829 
	C725.396790,861.540955 725.774719,865.867310 726.386597,870.143921 
z"/>
<path fill="#288AFD" opacity="1.000000" stroke="none" 
	d="
M578.924561,870.165344 
	C578.048645,877.729858 577.553955,885.364136 576.186584,892.838745 
	C574.892273,899.914368 573.524109,900.607056 566.431580,900.611450 
	C534.542175,900.631348 502.652771,900.646667 470.288940,900.759766 
	C459.109161,899.853455 457.076691,897.829773 457.086853,887.783447 
	C484.329834,887.303467 511.580292,887.229004 538.830750,887.158752 
	C542.985596,887.148071 547.159729,886.906372 551.290100,887.224487 
	C555.819519,887.573364 558.058655,885.493103 559.061523,881.371216 
	C561.636536,870.788391 562.788940,860.124817 561.565918,848.841553 
	C563.362976,848.398987 564.686096,848.383362 566.009155,848.384338 
	C573.571289,848.390259 575.556396,849.966675 576.952820,857.446777 
	C577.739746,861.662109 578.275635,865.924255 578.924561,870.165344 
z"/>
<path fill="#FE2DB9" opacity="1.000000" stroke="none" 
	d="
M876.463928,811.490051 
	C872.183960,806.301758 867.965393,800.950928 864.224243,795.284973 
	C863.326904,793.925903 863.283875,791.117676 864.085510,789.653442 
	C878.024658,764.191956 892.156982,738.836304 906.485962,713.238525 
	C911.950378,713.966797 917.265198,714.582275 922.376160,715.955994 
	C927.377991,717.300415 927.794800,718.941956 925.289612,723.467468 
	C909.097595,752.718018 892.897705,781.964294 876.463928,811.490051 
z"/>
<path fill="#288AFD" opacity="1.000000" stroke="none" 
	d="
M1203.570557,871.020386 
	C1202.751587,878.261475 1202.383057,885.591064 1200.983887,892.718262 
	C1199.648926,899.518066 1197.907959,900.397278 1191.040405,900.406250 
	C1160.603516,900.446167 1130.166626,900.482178 1099.360596,900.684082 
	C1090.441406,900.158997 1089.666382,899.305420 1087.309570,887.727966 
	C1114.786621,887.306458 1142.346680,887.220886 1169.906738,887.161194 
	C1182.657471,887.133606 1183.653564,886.829224 1185.397583,874.161621 
	C1186.493164,866.204773 1185.761841,857.996399 1186.139160,849.425293 
	C1186.428345,848.949646 1186.880005,848.829712 1187.334106,848.896606 
	C1198.576172,849.065247 1199.573242,849.682129 1201.620728,858.814453 
	C1202.520386,862.827148 1202.935547,866.948425 1203.570557,871.020386 
z"/>
<path fill="#288AFD" opacity="1.000000" stroke="none" 
	d="
M1069.522461,830.330383 
	C1069.042603,832.526978 1068.696167,834.320068 1068.125977,836.039001 
	C1065.970459,842.537109 1064.132690,843.846680 1057.248535,843.851990 
	C1020.542053,843.880005 983.835510,843.896912 946.684204,843.989990 
	C937.733887,843.432007 936.113159,841.788330 933.973816,831.256836 
	C938.905945,830.747192 943.875244,830.556091 948.844666,830.551331 
	C978.402283,830.522705 1007.959839,830.537231 1037.517456,830.537170 
	C1048.334595,830.537109 1050.435303,828.887634 1052.328613,818.323364 
	C1052.820435,815.578735 1052.677490,812.720276 1052.892334,809.467163 
	C1054.769653,809.011292 1056.594971,809.146362 1058.388550,808.965881 
	C1063.339966,808.467712 1066.541382,811.051208 1067.646362,815.360535 
	C1068.850952,820.058716 1068.964233,825.036743 1069.522461,830.330383 
z"/>
<path fill="#288AFD" opacity="1.000000" stroke="none" 
	d="
M1280.860840,764.836060 
	C1275.405518,764.836060 1269.950317,764.836060 1264.247681,764.836060 
	C1264.247681,753.550781 1264.247681,742.480347 1264.247681,730.833862 
	C1269.444946,730.833862 1274.546753,730.833923 1279.648560,730.833862 
	C1291.640747,730.833801 1303.634644,730.715576 1315.623901,730.900696 
	C1319.542358,730.961182 1321.875610,729.438965 1322.079712,725.685364 
	C1322.692261,714.418945 1323.036499,703.138000 1323.553955,691.455322 
	C1325.947876,691.029663 1328.273315,690.997620 1330.598755,690.995911 
	C1337.554199,690.990845 1338.480591,691.617798 1339.564697,698.601379 
	C1340.250732,703.020020 1340.378662,707.525330 1340.761963,712.885742 
	C1340.186523,722.067078 1339.716553,730.364441 1338.977173,738.637634 
	C1338.629150,742.530457 1336.458496,744.326904 1332.212158,744.090942 
	C1326.067261,743.749390 1319.889038,744.003540 1313.725098,744.003540 
	C1302.941040,744.003540 1292.156982,744.003540 1280.860840,744.003540 
	C1280.860840,751.270569 1280.860840,758.053345 1280.860840,764.836060 
z"/>
<path fill="#FE2DB9" opacity="1.000000" stroke="none" 
	d="
M812.266174,834.523560 
	C816.484253,842.495728 820.702332,850.467957 825.007324,858.804810 
	C825.033020,877.457458 824.830688,895.746826 825.010132,914.032471 
	C825.054810,918.587524 823.622803,920.607483 819.095337,921.342346 
	C802.811523,923.984985 786.648315,922.729675 770.474243,920.469543 
	C766.319031,919.888916 764.416016,917.989441 764.885071,913.492493 
	C765.314026,909.380066 764.976807,905.187744 765.444153,900.509033 
	C768.406860,900.050049 770.903076,900.180359 773.398376,900.163513 
	C783.855347,900.093018 794.326843,900.280945 804.763550,899.771667 
	C811.531677,899.441345 812.115295,898.316956 812.129883,891.940796 
	C812.173706,872.801697 812.220520,853.662659 812.266174,834.523560 
z"/>
<path fill="#288AFD" opacity="1.000000" stroke="none" 
	d="
M812.182373,834.239929 
	C812.220520,853.662659 812.173706,872.801697 812.129883,891.940796 
	C812.115295,898.316956 811.531677,899.441345 804.763550,899.771667 
	C794.326843,900.280945 783.855347,900.093018 773.398376,900.163513 
	C770.903076,900.180359 768.406860,900.050049 765.447876,900.047424 
	C763.866150,899.876953 762.748047,899.643921 761.628784,899.416504 
	C752.201233,897.501099 752.201172,897.501404 752.244385,887.552734 
	C762.723083,887.088013 773.190613,887.065247 783.658142,887.038635 
	C783.990479,887.037781 784.323425,887.005371 784.654907,886.975220 
	C795.294922,886.006104 795.367432,885.929504 795.367798,875.514648 
	C795.368530,854.218567 795.367981,832.922424 795.367981,809.739990 
	C798.151917,811.433044 800.638000,812.078735 801.526733,813.635986 
	C805.308411,820.262329 808.617188,827.158569 812.182373,834.239929 
z"/>
<path fill="#288AFD" opacity="1.000000" stroke="none" 
	d="
M515.901550,760.836609 
	C510.457245,760.836609 505.012939,760.836609 499.298859,760.836609 
	C499.298859,750.931335 499.298859,741.217590 499.298859,730.833862 
	C502.555328,730.833862 505.808807,730.833862 509.062256,730.833862 
	C522.847900,730.833862 536.639038,730.610352 550.416626,730.943359 
	C555.955322,731.077271 558.730042,728.683960 559.018005,723.667297 
	C559.624878,713.097168 559.795105,702.501953 560.183960,691.479126 
	C561.388489,691.025330 562.553345,690.999146 563.718384,690.995056 
	C574.281738,690.958130 575.486145,691.970764 576.751953,702.501282 
	C577.128540,705.634155 577.145447,708.810364 577.339233,712.874573 
	C576.872009,721.551819 576.640381,729.347412 575.819275,737.080444 
	C575.335938,741.632385 572.979370,744.427979 567.501465,744.118591 
	C559.558167,743.669922 551.570740,744.003540 543.602112,744.003540 
	C534.520752,744.003540 525.439392,744.003540 515.901550,744.003540 
	C515.901550,749.961060 515.901550,755.398865 515.901550,760.836609 
z"/>
<path fill="#288AFD" opacity="1.000000" stroke="none" 
	d="
M663.361145,760.843079 
	C658.068542,760.843079 652.775879,760.843079 647.119324,760.843079 
	C647.119324,751.055664 647.119324,741.348999 647.119324,730.833069 
	C648.653381,730.833069 650.392700,730.833008 652.132019,730.833008 
	C667.412720,730.833008 682.693481,730.838867 697.974182,730.830200 
	C704.078125,730.826721 706.229736,729.563782 706.752075,723.240356 
	C707.610474,712.847839 707.570557,702.381104 707.967407,691.480896 
	C710.175781,691.008484 712.326111,690.993286 714.476501,690.994629 
	C720.901550,690.998535 722.667297,692.282104 723.721802,698.642334 
	C724.449524,703.031738 724.622742,707.513062 725.038330,712.869873 
	C724.463074,721.716003 724.088135,729.666199 723.248535,737.567078 
	C722.763184,742.134460 720.160889,744.333496 715.064087,744.114197 
	C705.939331,743.721680 696.785522,744.003540 687.643860,744.003540 
	C679.711853,744.003540 671.779785,744.003540 663.361145,744.003540 
	C663.361145,749.955017 663.361145,755.399048 663.361145,760.843079 
z"/>
<path fill="#FE2DB9" opacity="1.000000" stroke="none" 
	d="
M1281.334595,764.902100 
	C1280.860840,758.053345 1280.860840,751.270569 1280.860840,744.003540 
	C1292.156982,744.003540 1302.941040,744.003540 1313.725098,744.003540 
	C1319.889038,744.003540 1326.067261,743.749390 1332.212158,744.090942 
	C1336.458496,744.326904 1338.629150,742.530457 1338.977173,738.637634 
	C1339.716553,730.364441 1340.186523,722.067078 1340.853027,713.307190 
	C1350.863281,712.888123 1351.721680,712.839722 1352.272827,722.610291 
	C1352.970459,734.976929 1352.255371,747.437988 1351.808960,759.846130 
	C1351.660400,763.973816 1349.353149,766.091125 1344.565186,765.979797 
	C1330.955078,765.663635 1317.332153,765.888245 1303.227173,765.965271 
	C1297.568848,765.687134 1292.399170,765.316162 1287.225586,765.015198 
	C1285.425049,764.910400 1283.614380,764.978760 1281.334595,764.902100 
z"/>
<path fill="#FE2DB9" opacity="1.000000" stroke="none" 
	d="
M663.795776,760.905640 
	C663.361145,755.399048 663.361145,749.955017 663.361145,744.003540 
	C671.779785,744.003540 679.711853,744.003540 687.643860,744.003540 
	C696.785522,744.003540 705.939331,743.721680 715.064087,744.114197 
	C720.160889,744.333496 722.763184,742.134460 723.248535,737.567078 
	C724.088135,729.666199 724.463074,721.716003 725.100708,713.310303 
	C728.567566,713.165039 732.471741,711.636169 735.109009,715.858154 
	C735.390442,730.944641 735.478882,745.654602 735.398682,761.129272 
	C734.332886,765.237732 731.948914,765.923340 728.797363,765.906555 
	C715.757385,765.837219 702.716614,765.930237 689.676086,765.963562 
	C688.357666,762.172485 685.911682,760.631775 681.715210,760.903809 
	C675.909973,761.280090 670.060791,760.979187 663.795776,760.905640 
z"/>
<path fill="#FE2DB9" opacity="1.000000" stroke="none" 
	d="
M516.372314,760.902588 
	C515.901550,755.398865 515.901550,749.961060 515.901550,744.003540 
	C525.439392,744.003540 534.520752,744.003540 543.602112,744.003540 
	C551.570740,744.003540 559.558167,743.669922 567.501465,744.118591 
	C572.979370,744.427979 575.335938,741.632385 575.819275,737.080444 
	C576.640381,729.347412 576.872009,721.551819 577.461182,713.311523 
	C580.964661,713.327637 585.142334,711.280151 587.541199,716.118652 
	C587.846436,731.359131 587.885681,746.323425 587.616821,761.981140 
	C585.127258,763.737854 582.965881,765.670105 580.760620,765.721558 
	C567.869568,766.021790 554.968262,765.881775 542.070374,765.890381 
	C540.704285,761.782898 537.808350,760.677795 533.648987,760.917725 
	C528.064697,761.239868 522.446655,760.979126 516.372314,760.902588 
z"/>
<path fill="#FE2DB9" opacity="1.000000" stroke="none" 
	d="
M1186.880005,848.829712 
	C1186.880005,848.829712 1186.428345,848.949646 1186.195557,848.970337 
	C1185.367554,846.981567 1184.712646,844.987549 1184.189087,842.959534 
	C1182.947510,838.149292 1180.486572,834.979126 1174.512695,835.708496 
	C1174.106567,804.834656 1174.106567,774.049683 1174.106567,742.407227 
	C1179.968750,742.407227 1185.574341,742.141052 1191.141724,742.488953 
	C1195.844360,742.782898 1198.697998,740.741943 1199.391357,736.459595 
	C1200.606812,728.952026 1201.261963,721.353638 1202.217529,713.319580 
	C1202.956665,712.845520 1203.630127,712.845154 1204.640503,712.837891 
	C1205.031494,729.627747 1205.085693,746.424561 1204.593506,763.687988 
	C1198.462158,764.154724 1192.877441,764.154724 1186.880005,764.154724 
	C1186.880005,792.816223 1186.880005,820.822998 1186.880005,848.829712 
z"/>
<path fill="#FE2DB9" opacity="1.000000" stroke="none" 
	d="
M857.079407,898.269165 
	C869.632507,905.280945 882.098083,902.766785 893.809631,896.278015 
	C903.018555,891.175964 911.435913,884.644958 920.527344,878.595886 
	C925.564209,884.880127 930.278564,891.317200 935.290039,898.160095 
	C926.270325,906.908813 916.202332,913.696960 904.997620,918.911072 
	C897.985718,922.174133 890.917053,924.691833 882.931702,924.042542 
	C875.392273,923.429565 869.481873,920.251831 865.528992,913.928345 
	C862.449890,909.002625 859.909973,903.739868 857.079407,898.269165 
z"/>
<path fill="#288AFD" opacity="1.000000" stroke="none" 
	d="
M812.242004,722.511536 
	C806.933350,733.905212 801.624634,745.298889 796.315918,756.692566 
	C796.020752,756.616699 795.725525,756.540894 795.430359,756.465027 
	C795.430359,734.626526 795.430359,712.788025 795.560913,690.494141 
	C812.114319,690.978027 812.113281,690.978027 812.135498,707.222473 
	C812.137329,708.540039 812.164612,709.857666 812.185730,712.080566 
	C812.208313,716.161133 812.225159,719.336304 812.242004,722.511536 
z"/>
<path fill="#288AFD" opacity="1.000000" stroke="none" 
	d="
M1086.530762,729.729736 
	C1090.141602,729.396423 1093.852051,729.396423 1098.016235,729.396423 
	C1098.016235,733.648499 1098.016235,737.686951 1097.941162,742.151733 
	C1090.372925,742.594788 1088.579224,740.596863 1086.530762,729.729736 
z"/>
<path fill="#FE2DB9" opacity="1.000000" stroke="none" 
	d="
M812.475708,722.333008 
	C812.225159,719.336304 812.208313,716.161133 812.272827,712.548096 
	C813.612061,712.254517 814.870056,712.398743 816.496826,712.649780 
	C815.480225,715.889099 814.094788,719.021790 812.475708,722.333008 
z"/>
<path fill="#FE2DB9" opacity="1.000000" stroke="none" 
	d="
M290.060181,875.451782 
	C290.325531,875.182251 290.611053,875.318604 290.924805,875.825256 
	C290.731750,875.937256 290.440826,875.824646 290.060181,875.451782 
z"/>
<path fill="#FE2DB9" opacity="1.000000" stroke="none" 
	d="
M856.543213,897.352905 
	C856.795471,897.224792 857.019775,897.368774 857.125488,897.815796 
	C856.885254,897.874939 856.721375,897.710327 856.543213,897.352905 
z"/>
<path fill="#FFFFFF" opacity="1.000000" stroke="none" 
	d="
M689.729187,766.394165 
	C702.716614,765.930237 715.757385,765.837219 728.797363,765.906555 
	C731.948914,765.923340 734.332886,765.237732 735.329956,761.613586 
	C735.533752,763.481873 735.728760,765.630615 735.728027,767.779175 
	C735.715454,802.811584 735.678223,837.843994 735.531494,873.305542 
	C733.744202,870.182495 730.599121,869.968811 726.834106,870.144958 
	C725.774719,865.867310 725.396790,861.540955 724.500305,857.324829 
	C722.832336,849.480408 721.305054,848.387024 713.372131,848.383850 
	C712.205688,848.383423 711.039185,848.391174 709.415283,848.406982 
	C708.337524,846.079224 707.717102,843.739685 707.517334,841.014465 
	C716.466431,840.661438 718.183105,839.450195 718.945068,830.986694 
	C719.654602,823.106506 720.100525,815.147949 719.849182,807.249756 
	C719.534363,797.356201 717.735168,796.008789 707.945190,795.545532 
	C707.560730,790.964539 707.424927,786.806946 706.915710,782.695679 
	C706.004700,775.340759 704.505249,774.142700 697.013306,774.141174 
	C695.020081,774.140747 693.026794,774.145752 691.033569,774.148193 
	C690.616455,771.707031 690.199402,769.265930 689.729187,766.394165 
z"/>
<path fill="#288AFD" opacity="1.000000" stroke="none" 
	d="
M297.089813,879.662659 
	C296.747253,879.741760 296.419220,879.468628 296.009644,878.866211 
	C296.320160,878.794800 296.712219,879.052612 297.089813,879.662659 
z"/>
<path fill="#FFFFFF" opacity="1.000000" stroke="none" 
	d="
M542.056641,766.306091 
	C554.968262,765.881775 567.869568,766.021790 580.760620,765.721558 
	C582.965881,765.670105 585.127258,763.737854 587.563171,762.463013 
	C587.859863,798.898987 587.902222,835.546509 587.880249,872.671692 
	C585.121460,872.147949 582.427063,871.146545 579.328613,870.155273 
	C578.275635,865.924255 577.739746,861.662109 576.952820,857.446777 
	C575.556396,849.966675 573.571289,848.390259 566.009155,848.384338 
	C564.686096,848.383362 563.362976,848.398987 561.601074,848.431641 
	C560.634766,846.141907 560.107361,843.827576 559.915710,841.089172 
	C568.939880,840.605347 570.197693,840.021423 571.170898,831.450989 
	C572.101868,823.252625 572.481262,814.886047 571.994629,806.658936 
	C571.383850,796.332214 570.519897,796.023621 560.163086,795.528564 
	C559.717957,790.322876 559.488342,785.555359 558.924683,780.827576 
	C558.356201,776.059265 555.927307,773.375732 550.631042,774.087402 
	C548.202332,774.413818 545.696228,774.164490 543.225220,774.176270 
	C542.831116,771.691467 542.437012,769.206604 542.056641,766.306091 
z"/>
<path fill="#288AFD" opacity="1.000000" stroke="none" 
	d="
M543.179626,774.630859 
	C545.696228,774.164490 548.202332,774.413818 550.631042,774.087402 
	C555.927307,773.375732 558.356201,776.059265 558.924683,780.827576 
	C559.488342,785.555359 559.717957,790.322876 560.075439,795.976990 
	C559.590149,801.491760 559.373718,806.145142 558.598816,810.703491 
	C557.404541,817.728577 556.152344,818.609070 549.125488,818.611755 
	C538.231812,818.615906 527.338135,818.612793 515.905457,818.612793 
	C515.905457,824.416870 515.905457,829.681335 515.905457,834.945801 
	C510.459656,834.945801 505.013855,834.945801 499.298126,834.945801 
	C499.298126,825.074951 499.298126,815.368958 499.298126,805.157288 
	C510.433472,805.157288 521.359009,805.158752 532.284546,805.156738 
	C539.674255,805.155396 541.024902,804.303589 541.844421,796.936890 
	C542.650024,789.694946 542.733582,782.372559 543.179626,774.630859 
z"/>
<path fill="#FE2DB9" opacity="1.000000" stroke="none" 
	d="
M516.375244,835.023499 
	C515.905457,829.681335 515.905457,824.416870 515.905457,818.612793 
	C527.338135,818.612793 538.231812,818.615906 549.125488,818.611755 
	C556.152344,818.609070 557.404541,817.728577 558.598816,810.703491 
	C559.373718,806.145142 559.590149,801.491760 560.144470,796.432556 
	C570.519897,796.023621 571.383850,796.332214 571.994629,806.658936 
	C572.481262,814.886047 572.101868,823.252625 571.170898,831.450989 
	C570.197693,840.021423 568.939880,840.605347 559.766541,840.673706 
	C557.957825,836.367065 554.971497,835.004822 550.588806,835.076233 
	C539.343750,835.259399 528.093384,835.114746 516.375244,835.023499 
z"/>
<path fill="#288AFD" opacity="1.000000" stroke="none" 
	d="
M690.969116,774.598389 
	C693.026794,774.145752 695.020081,774.140747 697.013306,774.141174 
	C704.505249,774.142700 706.004700,775.340759 706.915710,782.695679 
	C707.424927,786.806946 707.560730,790.964539 707.841553,795.961853 
	C707.185242,801.943787 706.659241,807.081299 705.886414,812.181396 
	C705.229248,816.518311 702.991699,818.845032 698.109009,818.693970 
	C688.951965,818.410767 679.780029,818.612732 670.614258,818.612793 
	C668.365173,818.612854 666.116089,818.612793 663.461060,818.612793 
	C663.461060,824.639954 663.461060,829.789856 663.461060,834.939758 
	C658.154236,834.939758 652.847412,834.939758 647.147095,834.939758 
	C647.147095,825.243347 647.147095,815.531250 647.147095,805.156494 
	C654.011414,805.156494 660.945923,805.156433 667.880493,805.156433 
	C671.042847,805.156433 674.205261,805.156494 677.367615,805.156433 
	C688.061768,805.156311 688.945435,804.456482 689.949341,793.460510 
	C690.507690,787.345093 690.601501,781.187256 690.969116,774.598389 
z"/>
<path fill="#FE2DB9" opacity="1.000000" stroke="none" 
	d="
M663.966431,835.016907 
	C663.461060,829.789856 663.461060,824.639954 663.461060,818.612793 
	C666.116089,818.612793 668.365173,818.612854 670.614258,818.612793 
	C679.780029,818.612732 688.951965,818.410767 698.109009,818.693970 
	C702.991699,818.845032 705.229248,816.518311 705.886414,812.181396 
	C706.659241,807.081299 707.185242,801.943787 707.921875,796.406128 
	C717.735168,796.008789 719.534363,797.356201 719.849182,807.249756 
	C720.100525,815.147949 719.654602,823.106506 718.945068,830.986694 
	C718.183105,839.450195 716.466431,840.661438 707.519104,840.603210 
	C705.321106,836.390381 702.199585,834.964233 697.658264,835.061035 
	C686.600891,835.296692 675.534607,835.110413 663.966431,835.016907 
z"/>
<path fill="#FFFFFF" opacity="1.000000" stroke="none" 
	d="
M1187.334106,848.896606 
	C1186.880005,820.822998 1186.880005,792.816223 1186.880005,764.154724 
	C1192.877441,764.154724 1198.462158,764.154724 1204.513184,764.161743 
	C1205.027588,799.468567 1205.075806,834.768372 1205.050537,870.531860 
	C1204.663818,870.995056 1204.350586,870.998230 1203.804077,871.012695 
	C1202.935547,866.948425 1202.520386,862.827148 1201.620728,858.814453 
	C1199.573242,849.682129 1198.576172,849.065247 1187.334106,848.896606 
z"/>
</svg>